<svg xmlns="http://www.w3.org/2000/svg"  viewBox="0 0 100 100" width="50px" height="50px"><g><circle cx="50" cy="50" r="37" fill="#e6edb7"/><circle cx="83" cy="15" r="4" fill="#f1bc19"/><circle cx="87" cy="24" r="2" fill="#9f8066"/><circle cx="81" cy="76" r="2" fill="#fbcd59"/><circle cx="15" cy="63" r="4" fill="#fbcd59"/><circle cx="25" cy="87" r="2" fill="#9f8066"/><circle cx="19.5" cy="43.5" r="2.5" fill="#fff"/><circle cx="79.5" cy="33.5" r="1.5" fill="#fff"/><circle cx="77" cy="13" r="1" fill="#f1bc19"/><path fill="#fedd32" d="M66.719,73H35.281C31.26,73,28,69.74,28,65.719V34.281C28,30.26,31.26,27,35.281,27h31.438 C70.74,27,74,30.26,74,34.281v31.438C74,69.74,70.74,73,66.719,73z"/><path fill="#870932" d="M64.948,48.108c0,0,6.258-0.236,7.32,6.022c1.063,6.258,0.826,17.002,0.826,17.002 s-2.716,2.125-6.14,2.125c-3.424,0-1.653-3.306-1.653-3.306L64.948,48.108z"/><path fill="#f11717" d="M64.691,54.56c0,0,4.368,0.061,6.582,2.217c0.167-3.54-0.392-5.791-1.328-6.395 s-5.772-1.025-5.772-1.025L64.691,54.56z"/><path fill="#472b29" d="M73.686,70.541l-2.007,1.535c0.373-1.584-0.15-14.446-0.928-19.502 c-0.495-3.215-6.599-2.938-6.659-2.934l-0.177-2.828c3.241-0.206,8.922,0.685,9.636,5.331c0.443,2.879,0.988,8.989,1.159,13.557 C74.802,68.149,73.881,69.712,73.686,70.541z"/><path fill="#f11717" d="M36.376,73.021c-1.299-10.508-0.675-25.634,1.771-31.17c2.243-5.077,9.682-8.973,17.947-7.556 c8.43,1.445,9.106,14.41,9.209,15.349c1.181,10.744-0.236,23.496-0.236,23.496"/><path fill="#870932" d="M60.874,37.836c0,0,3.871,21.725-2.194,28.455s-15.226,3.66-16.775,2.834 c-1.548-0.826-5.291-4.014-5.807-9.564c-1.161,5.903,0.387,13.578,0.387,13.578l28.775,0.236c0,0,1.677-20.78-1.032-29.281 C62.681,39.725,60.874,37.836,60.874,37.836z"/><path fill="#472b29" d="M66.558,73.303l-2.982-0.328c0.015-0.127,1.385-12.856,0.236-23.42l-0.024-0.265 c-0.325-3.831-1.751-12.857-7.95-13.931c-7.772-1.346-14.4,2.379-16.316,6.76c-2.213,5.063-3.003,19.705-1.655,30.719 l-2.979,0.364c-1.264-10.339-0.801-26.141,1.886-32.285c2.378-5.441,10.356-10.112,19.576-8.514 c5.815,1.007,9.616,7.07,10.428,16.633l0.018,0.194C67.979,60.127,66.616,72.77,66.558,73.303z"/><g><path fill="#235684" d="M39.8,42.441c0,0,6.848-1.417,12.043-0.236s5.431,8.265,3.778,11.217s-4.959,5.195-10.862,4.841 c-5.903-0.354-12.279-1.653-11.099-9.446C34.368,45.393,38.029,42.795,39.8,42.441z"/></g><g><path fill="#75daf3" d="M35.903,46.573c0,0-1.417,3.188,2.243,4.487s9.091,0.826,10.862,0.118s2.716-2.125,2.716-3.542 c0-1.417,0.236-3.306-4.369-4.132C42.751,42.677,38.029,43.149,35.903,46.573z"/></g><g><path fill="#472b29" d="M45.972,59.799c-0.42,0-0.854-0.013-1.303-0.04c-4.04-0.242-8.501-0.899-10.953-3.93 c-1.473-1.821-1.99-4.256-1.539-7.238c0.887-4.299,5.168-7.187,7.324-7.621c0.36-0.074,7.254-1.461,12.674-0.229 c2.264,0.514,3.984,1.966,4.978,4.197c1.419,3.192,0.944,7.13-0.223,9.215C55.459,56.781,52.374,59.799,45.972,59.799z M47.061,43.235c-3.623,0-6.911,0.665-6.957,0.675c-0.003,0.001-0.007,0.001-0.01,0.002c-1.177,0.235-4.374,2.352-4.965,5.209 c-0.311,2.065-0.015,3.668,0.919,4.822c1.729,2.137,5.611,2.631,8.801,2.822c4.611,0.277,7.793-1.096,9.464-4.077 c0.805-1.437,1.071-4.343,0.099-6.53c-0.602-1.352-1.577-2.19-2.9-2.491C50.106,43.348,48.555,43.235,47.061,43.235z M39.8,42.441 h0.01H39.8z"/></g><g><path fill="#fff" d="M39.209,47.046c0,0,0.826-0.708,2.479-1.063c1.653-0.354,3.896-0.472,5.077-0.118 c1.181,0.354,0.708,1.889-0.472,2.243s-5.549,0.59-6.494,0.59C38.855,48.698,38.619,47.636,39.209,47.046z"/></g><g><path fill="#472b29" d="M67.719,27.4c3.243,0,5.881,2.638,5.881,5.881v33.438c0,3.243-2.638,5.881-5.881,5.881H34.281 c-3.243,0-5.881-2.638-5.881-5.881V33.281c0-3.243,2.638-5.881,5.881-5.881H67.719 M67.719,26H34.281C30.26,26,27,29.26,27,33.281 v33.438C27,70.74,30.26,74,34.281,74h33.438C71.74,74,75,70.74,75,66.719V33.281C75,29.26,71.74,26,67.719,26L67.719,26z"/></g><g><path fill="#472b29" d="M46.5,31h-3c-0.276,0-0.5-0.224-0.5-0.5s0.224-0.5,0.5-0.5h3c0.276,0,0.5,0.224,0.5,0.5 S46.776,31,46.5,31z"/></g><g><path fill="#472b29" d="M31.5,34.5c-0.276,0-0.5-0.224-0.5-0.5c0-2.206,1.794-4,4-4h5.5c0.276,0,0.5,0.224,0.5,0.5 S40.776,31,40.5,31H35c-1.654,0-3,1.346-3,3C32,34.276,31.776,34.5,31.5,34.5z"/></g><g><path fill="#472b29" d="M31.5,42c-0.276,0-0.5-0.224-0.5-0.5v-5c0-0.276,0.224-0.5,0.5-0.5s0.5,0.224,0.5,0.5v5 C32,41.776,31.776,42,31.5,42z"/></g></g></svg>
